<svg xmlns="http://www.w3.org/2000/svg" viewBox="0 6.03000020980835 216.77000427246094 35.720001220703125" data-asc="0.82373046875" width="216.77000427246094" height="35.720001220703125"><defs/><g fill="#4424e5"><g transform="translate(0, 0)"><path d="M34.08 23.56Q34.08 26.12 33.40 28.43Q32.71 30.74 31.48 32.69Q30.25 34.64 28.54 36.22Q26.83 37.79 24.77 38.89Q22.71 39.99 20.35 40.59Q17.99 41.19 15.50 41.19L0 41.19L0 6.03L15.50 6.03Q17.99 6.03 20.34 6.62Q22.68 7.20 24.74 8.29Q26.81 9.38 28.53 10.94Q30.25 12.50 31.48 14.44Q32.71 16.38 33.40 18.69Q34.08 21.00 34.08 23.56M24.24 23.56Q24.24 20.70 23.55 18.13Q22.85 15.55 21.39 13.60Q19.92 11.65 17.66 10.50Q15.41 9.35 12.26 9.35L9.69 9.35L9.69 37.77L12.26 37.77Q15.36 37.77 17.61 36.61Q19.87 35.45 21.35 33.48Q22.83 31.52 23.54 28.96Q24.24 26.39 24.24 23.56ZM69.04 27.03Q69.04 29.22 68.46 31.15Q67.87 33.08 66.83 34.72Q65.80 36.35 64.33 37.66Q62.87 38.96 61.12 39.87Q59.38 40.77 57.39 41.26Q55.40 41.75 53.30 41.75Q51.20 41.75 49.22 41.26Q47.24 40.77 45.50 39.87Q43.75 38.96 42.29 37.66Q40.82 36.35 39.78 34.72Q38.75 33.08 38.16 31.14Q37.57 29.20 37.57 27.03Q37.57 24.85 38.16 22.91Q38.75 20.97 39.78 19.34Q40.82 17.70 42.29 16.39Q43.75 15.09 45.50 14.18Q47.24 13.28 49.22 12.79Q51.20 12.30 53.30 12.30Q55.40 12.30 57.39 12.79Q59.38 13.28 61.12 14.18Q62.87 15.09 64.33 16.39Q65.80 17.70 66.83 19.34Q67.87 20.97 68.46 22.91Q69.04 24.85 69.04 27.03M60.64 27.03Q60.64 25.85 60.51 24.55Q60.38 23.24 60.06 21.98Q59.74 20.73 59.19 19.57Q58.64 18.41 57.84 17.54Q57.03 16.67 55.91 16.15Q54.79 15.63 53.30 15.63Q51.88 15.63 50.78 16.16Q49.68 16.70 48.86 17.59Q48.05 18.48 47.50 19.65Q46.95 20.83 46.61 22.08Q46.26 23.34 46.12 24.62Q45.97 25.90 45.97 27.03Q45.97 28.15 46.12 29.43Q46.26 30.71 46.61 31.98Q46.95 33.25 47.50 34.41Q48.05 35.57 48.86 36.46Q49.68 37.35 50.78 37.89Q51.88 38.43 53.30 38.43Q54.76 38.43 55.88 37.90Q57.01 37.38 57.82 36.50Q58.64 35.62 59.18 34.47Q59.72 33.33 60.05 32.06Q60.38 30.79 60.51 29.49Q60.64 28.20 60.64 27.03ZM100.27 19.97L96.70 21.39Q95.85 18.70 93.85 17.26Q91.85 15.82 89.04 15.82Q87.52 15.82 86.34 16.30Q85.16 16.77 84.27 17.60Q83.37 18.43 82.75 19.53Q82.13 20.63 81.74 21.88Q81.35 23.12 81.18 24.45Q81.01 25.78 81.01 27.03Q81.01 28.37 81.15 29.74Q81.30 31.10 81.65 32.36Q82.01 33.62 82.59 34.70Q83.18 35.79 84.07 36.60Q84.96 37.40 86.19 37.87Q87.43 38.33 89.04 38.33Q90.33 38.33 91.50 37.94Q92.68 37.55 93.65 36.84Q94.63 36.13 95.39 35.16Q96.14 34.18 96.58 32.98L100.17 34.30Q99.37 36.23 98.03 37.63Q96.70 39.04 95.02 39.95Q93.33 40.87 91.41 41.31Q89.48 41.75 87.50 41.75Q84.30 41.75 81.57 40.66Q78.83 39.58 76.84 37.61Q74.85 35.64 73.73 32.95Q72.61 30.25 72.61 27.03Q72.61 23.78 73.72 21.07Q74.83 18.36 76.81 16.41Q78.78 14.45 81.52 13.38Q84.25 12.30 87.50 12.30Q89.55 12.30 91.50 12.76Q93.46 13.21 95.13 14.15Q96.80 15.09 98.13 16.53Q99.46 17.97 100.27 19.97ZM110.18 41.19L105.69 41.19L105.69 6.03L111.99 6.03L133.35 30.18L133.35 6.03L137.82 6.03L137.82 41.19L131.52 41.19L110.18 17.07L110.18 41.19ZM174.49 27.03Q174.49 29.22 173.90 31.15Q173.32 33.08 172.28 34.72Q171.24 36.35 169.78 37.66Q168.31 38.96 166.56 39.87Q164.82 40.77 162.83 41.26Q160.84 41.75 158.74 41.75Q156.64 41.75 154.66 41.26Q152.69 40.77 150.94 39.87Q149.19 38.96 147.73 37.66Q146.26 36.35 145.23 34.72Q144.19 33.08 143.60 31.14Q143.02 29.20 143.02 27.03Q143.02 24.85 143.60 22.91Q144.19 20.97 145.23 19.34Q146.26 17.70 147.73 16.39Q149.19 15.09 150.94 14.18Q152.69 13.28 154.66 12.79Q156.64 12.30 158.74 12.30Q160.84 12.30 162.83 12.79Q164.82 13.28 166.56 14.18Q168.31 15.09 169.78 16.39Q171.24 17.70 172.28 19.34Q173.32 20.97 173.90 22.91Q174.49 24.85 174.49 27.03M166.09 27.03Q166.09 25.85 165.95 24.55Q165.82 23.24 165.50 21.98Q165.19 20.73 164.64 19.57Q164.09 18.41 163.28 17.54Q162.48 16.67 161.35 16.15Q160.23 15.63 158.74 15.63Q157.32 15.63 156.23 16.16Q155.13 16.70 154.31 17.59Q153.49 18.48 152.94 19.65Q152.39 20.83 152.05 22.08Q151.71 23.34 151.56 24.62Q151.42 25.90 151.42 27.03Q151.42 28.15 151.56 29.43Q151.71 30.71 152.05 31.98Q152.39 33.25 152.94 34.41Q153.49 35.57 154.31 36.46Q155.13 37.35 156.23 37.89Q157.32 38.43 158.74 38.43Q160.21 38.43 161.33 37.90Q162.45 37.38 163.27 36.50Q164.09 35.62 164.62 34.47Q165.16 33.33 165.49 32.06Q165.82 30.79 165.95 29.49Q166.09 28.20 166.09 27.03ZM191.97 41.19L184.55 41.19L176.83 12.99L185.08 12.99L189.92 32.76L193.95 12.99L201.37 12.99L206.30 33.30L211.06 12.99L216.77 12.99L208.23 41.19L200.81 41.19L196.63 24.05L191.97 41.19Z"/></g></g></svg>